<svg width="50" height="50" viewBox="0 0 50 50" fill="none" xmlns="http://www.w3.org/2000/svg">
<g id="Frame">
<path id="Vector" d="M25.0064 32.8125C27.4675 32.8125 29.5575 31.9511 31.2762 30.2282C32.995 28.5052 33.8543 26.4132 33.8543 23.9521C33.8543 21.491 32.9929 19.4011 31.27 17.6823C29.547 15.9636 27.455 15.1042 24.9939 15.1042C22.5328 15.1042 20.4429 15.9657 18.7241 17.6886C17.0054 19.4115 16.146 21.5035 16.146 23.9646C16.146 26.4257 17.0075 28.5157 18.7304 30.2344C20.4533 31.9532 22.5453 32.8125 25.0064 32.8125ZM24.9877 29.7917C23.3641 29.7917 21.988 29.2233 20.8595 28.0865C19.7311 26.95 19.1668 25.5698 19.1668 23.9459C19.1668 22.3223 19.7352 20.9462 20.872 19.8177C22.0085 18.6893 23.3887 18.125 25.0127 18.125C26.6363 18.125 28.0123 18.6934 29.1408 19.8302C30.2693 20.9667 30.8335 22.3469 30.8335 23.9709C30.8335 25.5945 30.2651 26.9705 29.1283 28.099C27.9918 29.2275 26.6116 29.7917 24.9877 29.7917ZM25.0002 39.5834C19.9307 39.5834 15.3474 38.1424 11.2502 35.2605C7.15294 32.3785 4.09738 28.6112 2.0835 23.9584C4.09738 19.3056 7.15294 15.5382 11.2502 12.6563C15.3474 9.77435 19.9307 8.33337 25.0002 8.33337C30.0696 8.33337 34.6529 9.77435 38.7502 12.6563C42.8474 15.5382 45.9029 19.3056 47.9168 23.9584C45.9029 28.6112 42.8474 32.3785 38.7502 35.2605C34.6529 38.1424 30.0696 39.5834 25.0002 39.5834ZM24.9913 36.4584C29.1986 36.4584 33.0644 35.3212 36.5887 33.0469C40.113 30.7726 42.7953 27.7431 44.6356 23.9584C42.7953 20.1737 40.116 17.1441 36.5976 14.8698C33.0792 12.5955 29.2163 11.4584 25.009 11.4584C20.8017 11.4584 16.9359 12.5955 13.4116 14.8698C9.88732 17.1441 7.18766 20.1737 5.31266 23.9584C7.18766 27.7431 9.88436 30.7726 13.4028 33.0469C16.9212 35.3212 20.784 36.4584 24.9913 36.4584Z" fill="#B020D3"/>
</g>
</svg>
