<svg width="50" height="50" viewBox="0 0 50 50" fill="none" xmlns="http://www.w3.org/2000/svg">
<g id="Frame">
<path id="Vector" d="M32.7606 28.177L30.4689 25.8854C31.3717 23.4201 30.9029 21.3715 29.0627 19.7395C27.2224 18.1076 25.2259 17.6909 23.0731 18.4895L20.7814 16.1979C21.3717 15.8159 22.0314 15.5382 22.7606 15.3645C23.4897 15.1909 24.2363 15.1041 25.0002 15.1041C27.4654 15.1041 29.5575 15.9635 31.2762 17.6823C32.995 19.401 33.8543 21.493 33.8543 23.9583C33.8543 24.7222 33.7588 25.4774 33.5679 26.2239C33.3769 26.9704 33.1078 27.6215 32.7606 28.177ZM39.4793 34.8958L37.396 32.8125C39.0974 31.5625 40.5818 30.1649 41.8491 28.6198C43.1165 27.0746 44.0453 25.5208 44.6356 23.9583C42.8995 20.1041 40.2953 17.0573 36.8231 14.8177C33.3509 12.5781 29.5835 11.4583 25.521 11.4583C24.0627 11.4583 22.5696 11.5972 21.0418 11.875C19.5141 12.1527 18.3161 12.4826 17.4481 12.8645L15.0522 10.4166C16.2675 9.86107 17.8213 9.37496 19.7137 8.95829C21.6061 8.54163 23.455 8.33329 25.2606 8.33329C30.2259 8.33329 34.7658 9.74822 38.8804 12.5781C42.995 15.4079 46.0071 19.2013 47.9168 23.9583C47.014 26.1805 45.8509 28.2118 44.4272 30.052C43.0036 31.8923 41.3543 33.5069 39.4793 34.8958ZM42.5002 46.6666L33.7502 38.0729C32.5349 38.559 31.1634 38.9323 29.6356 39.1927C28.1078 39.4531 26.5627 39.5833 25.0002 39.5833C19.9307 39.5833 15.33 38.1684 11.1981 35.3385C7.06613 32.5086 4.02794 28.7152 2.0835 23.9583C2.77794 22.1527 3.74148 20.3906 4.97412 18.6718C6.20676 16.9531 7.7085 15.3125 9.47933 13.75L2.91683 7.18746L5.10433 4.94788L44.5314 44.375L42.5002 46.6666ZM11.6147 15.9375C10.33 16.875 9.0887 18.1076 7.89079 19.6354C6.69287 21.1632 5.8335 22.6041 5.31266 23.9583C7.0835 27.8125 9.74843 30.8593 13.3075 33.0989C16.8665 35.3385 20.9029 36.4583 25.4168 36.4583C26.5627 36.4583 27.6911 36.3888 28.8022 36.25C29.9134 36.1111 30.7467 35.9027 31.3022 35.625L27.9689 32.2916C27.587 32.4652 27.1182 32.5954 26.5627 32.6823C26.0071 32.7691 25.4863 32.8125 25.0002 32.8125C22.5696 32.8125 20.4863 31.9618 18.7502 30.2604C17.0141 28.559 16.146 26.4583 16.146 23.9583C16.146 23.4375 16.1894 22.9166 16.2762 22.3958C16.363 21.875 16.4932 21.4062 16.6668 20.9895L11.6147 15.9375Z" fill="#A2A2A2"/>
</g>
</svg>
