<svg width="50" height="50" viewBox="0 0 50 50" fill="none" xmlns="http://www.w3.org/2000/svg">
<g id="Frame">
<path id="Vector" d="M41.7189 34.1145L39.1147 31.5104C40.7814 29.7395 42.0575 27.9253 42.9429 26.0677C43.8283 24.21 44.271 21.927 44.271 19.2187C44.271 16.5104 43.8283 14.2274 42.9429 12.3698C42.0575 10.5121 40.7814 8.69788 39.1147 6.92704L41.7189 4.32288C43.6634 6.33677 45.1825 8.53295 46.2762 10.9114C47.37 13.2899 47.9168 16.059 47.9168 19.2187C47.9168 22.3784 47.37 25.1475 46.2762 27.526C45.1825 29.9045 43.6634 32.1007 41.7189 34.1145ZM34.4793 26.7187L31.8752 24.1145C32.5002 23.4201 32.9863 22.6823 33.3335 21.901C33.6807 21.1198 33.8543 20.2257 33.8543 19.2187C33.8543 18.2118 33.6807 17.3177 33.3335 16.5364C32.9863 15.7552 32.5002 15.0173 31.8752 14.3229L34.4793 11.7187C35.3821 12.6909 36.1113 13.8281 36.6668 15.1302C37.2224 16.4323 37.5002 17.7951 37.5002 19.2187C37.5002 20.6423 37.2224 22.0052 36.6668 23.3073C36.1113 24.6093 35.3821 25.7465 34.4793 26.7187ZM18.7502 27.0312C16.4585 27.0312 14.5835 26.302 13.1252 24.8437C11.6668 23.3854 10.9377 21.5104 10.9377 19.2187C10.9377 16.927 11.6668 15.052 13.1252 13.5937C14.5835 12.1354 16.4585 11.4062 18.7502 11.4062C21.0418 11.4062 22.9168 12.1354 24.3752 13.5937C25.8335 15.052 26.5627 16.927 26.5627 19.2187C26.5627 21.5104 25.8335 23.3854 24.3752 24.8437C22.9168 26.302 21.0418 27.0312 18.7502 27.0312ZM2.0835 43.75V38.8541C2.0835 37.5347 2.41336 36.4149 3.07308 35.4948C3.7328 34.5746 4.5835 33.8541 5.62516 33.3333C7.396 32.4305 9.48801 31.684 11.9012 31.0937C14.3144 30.5034 16.5974 30.2083 18.7502 30.2083C20.9029 30.2083 23.1772 30.5034 25.5731 31.0937C27.9689 31.684 30.0522 32.4305 31.8231 33.3333C32.8647 33.8541 33.7241 34.5746 34.4012 35.4948C35.0783 36.4149 35.4168 37.5347 35.4168 38.8541V43.75H2.0835ZM5.2085 40.625H32.2918V38.8541C32.2918 38.2986 32.1443 37.7864 31.8491 37.3177C31.554 36.8489 31.1286 36.4583 30.5731 36.1458C28.9064 35.2083 27.0141 34.5052 24.896 34.0364C22.7779 33.5677 20.7293 33.3333 18.7502 33.3333C16.771 33.3333 14.7137 33.585 12.5783 34.0885C10.4429 34.592 8.54183 35.2777 6.87516 36.1458C6.38905 36.3889 5.98975 36.7621 5.67725 37.2656C5.36475 37.7691 5.2085 38.2986 5.2085 38.8541V40.625ZM18.7502 23.9062C20.1043 23.9062 21.2241 23.4635 22.1095 22.5781C22.995 21.6927 23.4377 20.5729 23.4377 19.2187C23.4377 17.8645 22.995 16.7448 22.1095 15.8593C21.2241 14.9739 20.1043 14.5312 18.7502 14.5312C17.396 14.5312 16.2762 14.9739 15.3908 15.8593C14.5054 16.7448 14.0627 17.8645 14.0627 19.2187C14.0627 20.5729 14.5054 21.6927 15.3908 22.5781C16.2762 23.4635 17.396 23.9062 18.7502 23.9062Z" fill="#0970E7"/>
</g>
</svg>
