<svg width="50" height="50" viewBox="0 0 50 50" fill="none" xmlns="http://www.w3.org/2000/svg">
<g id="Frame">
<path id="Vector" d="M26.0934 21.302L15.833 11.0416C16.1455 10.9374 16.5622 10.8333 17.083 10.7291C17.6038 10.6249 18.1594 10.5728 18.7497 10.5728C21.0413 10.5728 22.9163 11.302 24.3747 12.7603C25.833 14.2187 26.5622 16.0937 26.5622 18.3853C26.5622 18.8367 26.5188 19.3315 26.432 19.8697C26.3452 20.4079 26.2323 20.8853 26.0934 21.302ZM2.08301 42.9166V37.9687C2.08301 36.6492 2.44759 35.5121 3.17676 34.5572C3.90592 33.6023 4.7219 32.9166 5.62467 32.4999C8.02051 31.3888 10.2688 30.5902 12.3695 30.1041C14.4702 29.618 16.5969 29.3749 18.7497 29.3749C19.9302 29.3749 21.2063 29.4704 22.5778 29.6614C23.9493 29.8523 25.208 30.1214 26.3538 30.4687L21.6143 25.7291C21.2323 25.868 20.807 25.9808 20.3382 26.0676C19.8695 26.1544 19.34 26.1978 18.7497 26.1978C16.458 26.1978 14.583 25.4687 13.1247 24.0103C11.6663 22.552 10.9372 20.677 10.9372 18.3853C10.9372 17.8992 10.9719 17.3958 11.0413 16.8749C11.1108 16.3541 11.215 15.9027 11.3538 15.5208L2.08301 6.24992L4.32259 4.01034L44.8434 44.5312L42.6038 46.7708L35.4163 39.5833V42.9166H2.08301ZM5.20801 39.7916H32.2913V38.0728C32.2913 37.5173 32.1351 36.9791 31.8226 36.4583C31.5101 35.9374 31.0934 35.5555 30.5726 35.3124C28.4545 34.3749 26.4493 33.6718 24.557 33.203C22.6646 32.7343 20.7288 32.4999 18.7497 32.4999C16.7705 32.4999 14.8174 32.7256 12.8903 33.177C10.9632 33.6284 8.95801 34.3402 6.87467 35.3124C6.35384 35.5555 5.94585 35.9461 5.65072 36.4843C5.35558 37.0225 5.20801 37.5694 5.20801 38.1249V39.7916ZM41.7184 33.2812L39.1143 30.677C40.7809 28.9062 42.057 27.0919 42.9424 25.2343C43.8278 23.3767 44.2705 21.0937 44.2705 18.3853C44.2705 15.677 43.8278 13.394 42.9424 11.5364C42.057 9.67874 40.7809 7.8645 39.1143 6.09367L41.7184 3.4895C43.6629 5.50339 45.182 7.69957 46.2757 10.078C47.3695 12.4565 47.9163 15.2256 47.9163 18.3853C47.9163 21.5451 47.3695 24.3142 46.2757 26.6926C45.182 29.0711 43.6629 31.2673 41.7184 33.2812ZM34.4788 25.8853L31.8747 23.2812C32.4997 22.5867 32.9858 21.8489 33.333 21.0676C33.6802 20.2864 33.8538 19.3923 33.8538 18.3853C33.8538 17.3784 33.6802 16.4843 33.333 15.703C32.9858 14.9218 32.4997 14.1839 31.8747 13.4895L34.4788 10.8853C35.3816 11.8576 36.1108 12.9947 36.6663 14.2968C37.2219 15.5989 37.4997 16.9617 37.4997 18.3853C37.4997 19.8089 37.2219 21.1718 36.6663 22.4739C36.1108 23.776 35.3816 24.9131 34.4788 25.8853Z" fill="#A2A2A2"/>
</g>
</svg>
